<?xml version="1.0" encoding="utf-8"?>
<!-- Generator: Adobe Illustrator 19.2.1, SVG Export Plug-In . SVG Version: 6.00 Build 0)  -->
<svg version="1.1" id="Layer_1" xmlns="http://www.w3.org/2000/svg" xmlns:xlink="http://www.w3.org/1999/xlink" x="0px" y="0px"
	 viewBox="0 0 15 15" style="enable-background:new 0 0 15 15;" xml:space="preserve">
<g>
	<g>
		<g>
			<path d="M13.9,0H1.1C0.5,0,0,0.5,0,1.1v12.8C0,14.5,0.5,15,1.1,15h12.8c0.6,0,1.1-0.5,1.1-1.1V1.1C15,0.5,14.5,0,13.9,0z
				 M4.4,12.8H2.2V5.6h2.2V12.8z M3.3,4.6C2.6,4.6,2,4.1,2,3.4s0.6-1.3,1.3-1.3s1.3,0.6,1.3,1.3S4,4.6,3.3,4.6z M12.8,12.8h-2.2V9.3
				c0-0.8,0-1.9-1.2-1.9S8.1,8.3,8.1,9.2v3.5H5.8V5.6H8v1l0,0C8.3,6,9,5.4,10.1,5.4c2.3,0,2.7,1.5,2.7,3.4V12.8z"/>
		</g>
	</g>
</g>
</svg>
