<?xml version="1.0" encoding="utf-8"?>
<!-- Generator: Adobe Illustrator 19.2.1, SVG Export Plug-In . SVG Version: 6.00 Build 0)  -->
<svg version="1.1" id="Layer_1" xmlns="http://www.w3.org/2000/svg" xmlns:xlink="http://www.w3.org/1999/xlink" x="0px" y="0px"
	 viewBox="0 0 389 500" style="enable-background:new 0 0 389 500;" xml:space="preserve">
<style type="text/css">
	.st0{fill:#FFFFFF;}
</style>
<path class="st0" d="M68,328.5c0.1,0.3,2.7,7.5,4.2,11c8.2,19.5,20,37,35.1,52c15,15,32.5,26.8,52,35.1
	c20.2,8.5,41.6,12.9,63.7,12.9c22.1,0,43.5-4.3,63.7-12.9c19.5-8.2,37-20,52-35.1c15-15,26.8-32.5,35.1-52
	c8.5-20.2,12.9-41.6,12.9-63.7c0-22.1-4.3-43.5-12.9-63.7c-8.2-19.5-20-37-35.1-52c-15-15-32.5-26.8-52-35.1
	c-20.2-8.5-41.6-12.9-63.7-12.9c-22.4,0-44.7,4.4-64.6,12.9c-15.9,6.7-42.8,24.1-58.6,40.3l-0.1,0.1V30.7l226.3,0
	c8.2-0.1,8.2-11.6,8.2-15.4c0-3.8,0-15.3-8.3-15.4L81.3,0c-6.7,0-10.8,5.5-10.8,10.7v189.6c0,6.1,7.6,10.5,14.7,12
	c13.8,3,17-1.5,20.4-6.1l0.4-0.6c5.2-7.7,21.3-23.9,21.5-24.1c25.2-25.2,58.9-39.1,94.9-39.1c35.8,0,69.4,13.9,94.6,39.1
	c25.3,25.3,39.2,58.8,39.2,94.4c0,35.7-13.9,69.2-39,94.4c-24.8,24.8-59.5,39.1-95.2,39.1c-24.2,0-47.5-6.4-67.5-18.6l0.1-115.3
	c0-15.4,6.7-32.1,17.8-44.7c12.8-14.4,30.4-22.4,49.6-22.4c18.6,0,35.9,7.1,48.9,19.9c12.8,12.7,19.9,29.7,19.9,47.7
	c0,38.5-30.3,68.7-69,68.7c-7.5,0-21-3.3-21.6-3.4c-7.8-2.3-11.1,8.5-12.2,12.1c-4.2,13.7,2.1,16.5,3.4,16.9
	c12.4,3.9,20.6,4.6,31.3,4.6c54.6,0,99-44.4,99-99.1c0-54.2-44.4-98.3-98.9-98.3c-26.7,0-51.8,10.2-70.7,28.8
	c-18,17.7-28.3,41.2-28.3,64.6l0,0.6c-0.1,2.9-0.1,72-0.2,94.7l-0.1-0.1c-10.3-11.4-20.4-28.8-27.1-46.5c-2.6-7-8.6-5.7-16.7-3.2
	C76.4,317.3,65.6,320.6,68,328.5L68,328.5z M184.3,301.4c0,3.3,3.1,6.2,4.9,8l0.6,0.5c3.1,3.1,6.1,4.6,8.8,4.6
	c2.3,0,3.7-1.1,4.1-1.5c1.4-1.3,16.8-17,18.3-18.4l17.3,17.2c1.6,1.8,3.3,2.7,5.4,2.8c2.8,0,5.8-1.6,8.9-4.9
	c7.4-7.6,3.7-11.7,1.9-13.7L237,278.5l18.2-18.4c4-4.3,0.5-8.9-3.1-12.5c-5.1-5.1-10.1-6.4-13.2-3.5l-18.1,18.2L202.5,244
	c-1-0.9-2.2-1.4-3.5-1.4c-2.4,0-5.3,1.7-8.6,4.9c-5.6,5.6-6.8,9.5-3.9,12.6l18.3,18.3l-18.2,18.3C185,298.2,184.3,299.8,184.3,301.4
	z M224.3,53.6c-29.3,0-60.5,5.9-83.4,15.8c-2.4,1-3.9,2.9-4.2,5.7c-0.3,2.6,0.4,6,2.2,10.5c1.4,3.6,5.2,13.3,12.5,10.5
	c23.4-8.9,49.4-13.9,73-13.9c26.8,0,52.7,5.2,77.2,15.6c19.4,8.2,37.7,20.1,57.6,37.3c1.5,1.3,3,1.9,4.6,1.9c3.9,0,7.6-3.8,10.8-7.4
	c5.3-6,9-10.9,3.7-15.9c-19-18-39.9-31.5-65.6-42.3C284.6,59.6,254.9,53.6,224.3,53.6z M382.2,415.6L382.2,415.6
	c-3.5-3.5-6.5-5.6-9.2-6.4c-2.7-0.8-5.1-0.2-6.9,1.7l-1.7,1.7c-18.2,18.2-39.3,32.4-62.9,42.4c-24.4,10.3-50.3,15.5-77,15.5
	c-26.7,0-52.6-5.2-77-15.5c-23.6-10-44.7-24.2-62.9-42.4c-18.9-18.9-33.2-40.1-42.4-62.9c-9-22.2-11.9-38.9-12.9-44.4
	c-0.1-0.5-0.2-0.9-0.2-1.2c-1.2-6.5-7.2-6.9-15.7-5.6c-3.6,0.5-14.4,2.2-13.4,10l0,0.2c2.9,18,7.9,35.7,15.1,52.6
	c11.4,27.1,27.8,51.4,48.7,72.2c20.9,20.9,45.2,37.3,72.2,48.7c28,11.9,57.8,17.9,88.5,17.9c30.7,0,60.4-6,88.5-17.9
	c27.1-11.4,51.4-27.8,72.2-48.7c0,0,1.2-1.2,1.8-1.9C389.4,429.1,391.4,424.7,382.2,415.6z"/>
</svg>
