<?xml version="1.0" encoding="utf-8"?>
<!-- Generator: Adobe Illustrator 19.2.1, SVG Export Plug-In . SVG Version: 6.00 Build 0)  -->
<svg version="1.1" id="Layer_1" xmlns="http://www.w3.org/2000/svg" xmlns:xlink="http://www.w3.org/1999/xlink" x="0px" y="0px"
	 viewBox="0 0 92.5 8.2" style="enable-background:new 0 0 92.5 8.2;" xml:space="preserve">
<g>
	<path d="M0.1,0.2H5v0.4H0.5v3.3h4.4v0.4H0.5v3.6H5v0.4H0.1V0.2z"/>
	<path d="M9.1,4.8H7.2v3.5H6.8v-8h2.8C10.9,0.2,12,1,12,2.5s-1.1,2.3-2.4,2.3l2.5,3.5h-0.5L9.1,4.8z M9.6,0.6H7.2v3.8h2.4
		c1.2,0,1.9-0.8,1.9-1.9S10.8,0.6,9.6,0.6z"/>
	<path d="M13.8,0.2h0.4v7.6h4v0.4h-4.4V0.2z"/>
	<path d="M19.8,0.2h0.4v8h-0.4V0.2z"/>
	<path d="M22.7,0.9v7.4h-0.4v-8h0.4L28,7.5V0.2h0.4v8H28L22.7,0.9z"/>
	<path d="M34.3,0.1c1.2,0,2.1,0.4,2.9,1.2l-0.3,0.3c-0.6-0.7-1.6-1.1-2.7-1.1c-2,0-3.6,1.5-3.6,3.8c0,2.2,1.6,3.8,3.6,3.8
		c1.2,0,2.1-0.6,2.5-1.1V4.8h-3.3V4.4h3.7v2.7c-0.7,0.8-1.7,1.3-2.9,1.3c-2.2,0-4-1.7-4-4.1C30.3,1.8,32,0.1,34.3,0.1z"/>
	<path d="M43.9,1.5h-2.4V0.2h6.2v1.2h-2.4v6.8h-1.4V1.5z"/>
	<path d="M52.3,0.1c2.4,0,4.1,1.8,4.1,4.1c0,2.4-1.7,4.1-4.1,4.1c-2.4,0-4.1-1.8-4.1-4.1C48.2,1.8,49.9,0.1,52.3,0.1z M52.3,1.3
		c-1.6,0-2.7,1.2-2.7,2.9c0,1.6,1,2.9,2.7,2.9c1.6,0,2.7-1.2,2.7-2.9C55,2.6,53.9,1.3,52.3,1.3z"/>
	<path d="M59.9,4.9l-0.7,0.8v2.6h-1.4v-8h1.4V4l3.1-3.8H64L60.8,4l3.5,4.2h-1.7L59.9,4.9z"/>
	<path d="M70.8,4.7h-4.2v3.5h-1.4v-8h1.4v3.3h4.2V0.2h1.4v8h-1.4V4.7z"/>
	<path d="M73.9,0.2h5.5v1.2h-4.1v2.1h4v1.2h-4V7h4.1v1.2h-5.5V0.2z"/>
	<path d="M80.8,0.2h1.4v8h-1.4V0.2z"/>
	<path d="M90.8,2.3l-2.5,5.9h-0.6l-2.4-5.9v5.9h-1.4v-8h2l2.2,5.3l2.2-5.3h2v8h-1.4V2.3z"/>
</g>
</svg>
