<?xml version="1.0" encoding="utf-8"?>
<!-- Generator: Adobe Illustrator 21.0.2, SVG Export Plug-In . SVG Version: 6.00 Build 0)  -->
<svg version="1.1" id="Layer_1" xmlns="http://www.w3.org/2000/svg" xmlns:xlink="http://www.w3.org/1999/xlink" x="0px" y="0px"
	 viewBox="0 0 15 15" style="enable-background:new 0 0 15 15;" xml:space="preserve">
<style type="text/css">
	.st0{fill-rule:evenodd;clip-rule:evenodd;fill:#FFFFFF;}
</style>
<path class="st0" d="M7.5,0.2C3.4,0.2,0,3.5,0,7.7c0,3.3,2.1,6.1,5.1,7.1c0.4,0.1,0.5-0.2,0.5-0.4c0-0.2,0-0.6,0-1.3
	c-2.1,0.5-2.5-1-2.5-1c-0.3-0.9-0.8-1.1-0.8-1.1c-0.7-0.5,0.1-0.5,0.1-0.5c0.8,0.1,1.1,0.8,1.1,0.8c0.7,1.1,1.8,0.8,2.2,0.6
	c0.1-0.5,0.3-0.8,0.5-1c-1.7-0.2-3.4-0.8-3.4-3.7c0-0.8,0.3-1.5,0.8-2c-0.1-0.2-0.3-1,0.1-2c0,0,0.6-0.2,2.1,0.8
	c0.6-0.2,1.2-0.2,1.9-0.3c0.6,0,1.3,0.1,1.9,0.3c1.4-1,2.1-0.8,2.1-0.8c0.4,1,0.2,1.8,0.1,2c0.5,0.5,0.8,1.2,0.8,2
	c0,2.9-1.8,3.5-3.4,3.7c0.3,0.2,0.5,0.7,0.5,1.4c0,1,0,1.8,0,2.1c0,0.2,0.1,0.4,0.5,0.4c3-1,5.1-3.8,5.1-7.1
	C15,3.5,11.6,0.2,7.5,0.2z"/>
</svg>
